<mxfile host="65bd71144e">
    <diagram id="r9aevMJxqEB8kfuO1bgd" name="USUARIO">
        <mxGraphModel dx="2528" dy="1146" grid="1" gridSize="10" guides="1" tooltips="1" connect="1" arrows="1" fold="1" page="1" pageScale="1" pageWidth="10000" pageHeight="10000" math="0" shadow="0">
            <root>
                <mxCell id="0"/>
                <mxCell id="1" parent="0"/>
                <mxCell id="l96GCFTQp6p8LahC0uS8-88" value="" style="rounded=1;whiteSpace=wrap;html=1;arcSize=1;" vertex="1" parent="1">
                    <mxGeometry x="835" y="920" width="1240" height="1240" as="geometry"/>
                </mxCell>
                <mxCell id="l96GCFTQp6p8LahC0uS8-69" value="" style="rounded=1;whiteSpace=wrap;html=1;arcSize=2;" vertex="1" parent="1">
                    <mxGeometry x="840" y="1987" width="1200" height="140" as="geometry"/>
                </mxCell>
                <mxCell id="56" value="&lt;font style=&quot;font-size: 72px;&quot;&gt;Página de Inicio&lt;/font&gt;" style="text;strokeColor=none;align=center;fillColor=none;html=1;verticalAlign=middle;whiteSpace=wrap;rounded=0;" vertex="1" parent="1">
                    <mxGeometry x="1130" y="810" width="670" height="30" as="geometry"/>
                </mxCell>
                <mxCell id="l96GCFTQp6p8LahC0uS8-57" value="image ObjetosPerdidos" style="rounded=1;whiteSpace=wrap;html=1;arcSize=5;" vertex="1" parent="1">
                    <mxGeometry x="895" y="990" width="135" height="112" as="geometry"/>
                </mxCell>
                <mxCell id="l96GCFTQp6p8LahC0uS8-62" style="edgeStyle=orthogonalEdgeStyle;rounded=0;orthogonalLoop=1;jettySize=auto;html=1;exitX=0.5;exitY=1;exitDx=0;exitDy=0;" edge="1" parent="1">
                    <mxGeometry relative="1" as="geometry">
                        <mxPoint x="1613" y="1009" as="sourcePoint"/>
                        <mxPoint x="1613" y="1009" as="targetPoint"/>
                    </mxGeometry>
                </mxCell>
                <mxCell id="l96GCFTQp6p8LahC0uS8-63" style="edgeStyle=orthogonalEdgeStyle;rounded=0;orthogonalLoop=1;jettySize=auto;html=1;exitX=0.5;exitY=1;exitDx=0;exitDy=0;" edge="1" parent="1">
                    <mxGeometry relative="1" as="geometry">
                        <mxPoint x="1613" y="1009" as="sourcePoint"/>
                        <mxPoint x="1613" y="1009" as="targetPoint"/>
                    </mxGeometry>
                </mxCell>
                <mxCell id="l96GCFTQp6p8LahC0uS8-64" value="Iniciar Sesión" style="rounded=1;whiteSpace=wrap;html=1;arcSize=5;" vertex="1" parent="1">
                    <mxGeometry x="1820" y="1000" width="80" height="30" as="geometry"/>
                </mxCell>
                <mxCell id="l96GCFTQp6p8LahC0uS8-65" value="Registrarse" style="rounded=1;whiteSpace=wrap;html=1;arcSize=5;" vertex="1" parent="1">
                    <mxGeometry x="1905" y="1000" width="80" height="30" as="geometry"/>
                </mxCell>
                <mxCell id="l96GCFTQp6p8LahC0uS8-66" value="" style="rounded=1;whiteSpace=wrap;html=1;arcSize=2;" vertex="1" parent="1">
                    <mxGeometry x="940" y="1230" width="313" height="290" as="geometry"/>
                </mxCell>
                <mxCell id="l96GCFTQp6p8LahC0uS8-67" value="" style="rounded=1;whiteSpace=wrap;html=1;" vertex="1" parent="1">
                    <mxGeometry x="2050" y="930" width="3" height="1170" as="geometry"/>
                </mxCell>
                <mxCell id="l96GCFTQp6p8LahC0uS8-90" value="&amp;nbsp; &amp;nbsp; &amp;nbsp; &amp;nbsp; &amp;nbsp; &amp;nbsp; &amp;nbsp;Buscar" style="rounded=1;whiteSpace=wrap;html=1;arcSize=5;align=left;" vertex="1" parent="1">
                    <mxGeometry x="1143" y="1050" width="450" height="36" as="geometry"/>
                </mxCell>
                <mxCell id="l96GCFTQp6p8LahC0uS8-99" value="" style="orthogonalLoop=1;jettySize=auto;html=1;fontSize=72;shape=link;width=-0.5142857142857142;" edge="1" parent="1">
                    <mxGeometry width="80" relative="1" as="geometry">
                        <mxPoint x="1470" y="960" as="sourcePoint"/>
                        <mxPoint x="1470" y="960" as="targetPoint"/>
                    </mxGeometry>
                </mxCell>
                <mxCell id="l96GCFTQp6p8LahC0uS8-103" value="" style="ellipse;whiteSpace=wrap;html=1;fontSize=72;" vertex="1" parent="1">
                    <mxGeometry x="1158" y="1053" width="20" height="20" as="geometry"/>
                </mxCell>
                <mxCell id="l96GCFTQp6p8LahC0uS8-104" value="" style="edgeStyle=none;orthogonalLoop=1;jettySize=auto;html=1;fontSize=72;shape=link;" edge="1" parent="1" target="l96GCFTQp6p8LahC0uS8-103">
                    <mxGeometry width="80" relative="1" as="geometry">
                        <mxPoint x="1148" y="1083" as="sourcePoint"/>
                        <mxPoint x="1178" y="1094.8200000000002" as="targetPoint"/>
                        <Array as="points"/>
                    </mxGeometry>
                </mxCell>
                <mxCell id="l96GCFTQp6p8LahC0uS8-107" value="&lt;font style=&quot;font-size: 36px;&quot;&gt;Destacados&lt;/font&gt;" style="text;strokeColor=none;align=center;fillColor=none;html=1;verticalAlign=middle;whiteSpace=wrap;rounded=0;" vertex="1" parent="1">
                    <mxGeometry x="740" y="1150" width="670" height="30" as="geometry"/>
                </mxCell>
                <mxCell id="l96GCFTQp6p8LahC0uS8-109" value="" style="rounded=1;whiteSpace=wrap;html=1;arcSize=2;" vertex="1" parent="1">
                    <mxGeometry x="1290" y="1230" width="310" height="290" as="geometry"/>
                </mxCell>
                <mxCell id="l96GCFTQp6p8LahC0uS8-110" value="" style="rounded=1;whiteSpace=wrap;html=1;arcSize=2;" vertex="1" parent="1">
                    <mxGeometry x="1626.5" y="1230" width="300" height="290" as="geometry"/>
                </mxCell>
                <mxCell id="l96GCFTQp6p8LahC0uS8-116" value="" style="rounded=1;whiteSpace=wrap;html=1;arcSize=2;" vertex="1" parent="1">
                    <mxGeometry x="940" y="1580" width="313" height="290" as="geometry"/>
                </mxCell>
                <mxCell id="l96GCFTQp6p8LahC0uS8-117" value="" style="rounded=1;whiteSpace=wrap;html=1;arcSize=2;" vertex="1" parent="1">
                    <mxGeometry x="1280" y="1580" width="313" height="290" as="geometry"/>
                </mxCell>
                <mxCell id="l96GCFTQp6p8LahC0uS8-118" value="" style="rounded=1;whiteSpace=wrap;html=1;arcSize=2;" vertex="1" parent="1">
                    <mxGeometry x="1620" y="1580" width="313" height="290" as="geometry"/>
                </mxCell>
                <mxCell id="l96GCFTQp6p8LahC0uS8-74" value="Dirección" style="rounded=1;whiteSpace=wrap;html=1;" vertex="1" parent="1">
                    <mxGeometry x="860" y="2003" width="170" height="110" as="geometry"/>
                </mxCell>
                <mxCell id="l96GCFTQp6p8LahC0uS8-75" value="Contacto" style="rounded=1;whiteSpace=wrap;html=1;" vertex="1" parent="1">
                    <mxGeometry x="1220" y="2007" width="410" height="60" as="geometry"/>
                </mxCell>
                <mxCell id="l96GCFTQp6p8LahC0uS8-77" value="Privacidad" style="rounded=1;whiteSpace=wrap;html=1;" vertex="1" parent="1">
                    <mxGeometry x="1090" y="2094" width="670" height="20" as="geometry"/>
                </mxCell>
                <mxCell id="l96GCFTQp6p8LahC0uS8-76" value="" style="rounded=1;whiteSpace=wrap;html=1;" vertex="1" parent="1">
                    <mxGeometry x="1860" y="2005" width="170" height="110" as="geometry"/>
                </mxCell>
                <mxCell id="l96GCFTQp6p8LahC0uS8-115" value="&lt;font style=&quot;font-size: 18px;&quot;&gt;&lt;span style=&quot;white-space: pre;&quot;&gt;&#9;&lt;/span&gt;&lt;span style=&quot;white-space: pre;&quot;&gt;&#9;&lt;/span&gt;&lt;span style=&quot;white-space: pre;&quot;&gt;&#9;&lt;/span&gt;&lt;span style=&quot;white-space: pre;&quot;&gt;&#9;&lt;/span&gt;&amp;nbsp; &amp;nbsp; &amp;lt;&lt;span style=&quot;white-space: pre;&quot;&gt;&#9;&lt;/span&gt;&lt;span style=&quot;white-space: pre;&quot;&gt;&#9;&lt;/span&gt;&lt;span style=&quot;white-space: pre;&quot;&gt;&#9;&lt;/span&gt;&lt;span style=&quot;white-space: pre;&quot;&gt;&#9;&lt;/span&gt;&lt;span style=&quot;white-space: pre;&quot;&gt;&#9;&lt;/span&gt;&amp;nbsp;&lt;span style=&quot;white-space: pre;&quot;&gt;&#9;&lt;/span&gt;&amp;gt;&lt;/font&gt;" style="text;strokeColor=none;align=left;fillColor=none;html=1;verticalAlign=middle;whiteSpace=wrap;rounded=0;" vertex="1" parent="1">
                    <mxGeometry x="1120" y="1950" width="670" height="30" as="geometry"/>
                </mxCell>
                <mxCell id="l96GCFTQp6p8LahC0uS8-111" value="&lt;font style=&quot;font-size: 18px;&quot;&gt;&lt;span style=&quot;white-space: pre;&quot;&gt;&#9;&lt;/span&gt;&lt;span style=&quot;white-space: pre;&quot;&gt;&#9;&lt;span style=&quot;white-space: pre;&quot;&gt;&#9;&lt;/span&gt;&lt;/span&gt;Anterior&lt;span style=&quot;white-space: pre;&quot;&gt;&#9;&lt;/span&gt; &lt;span style=&quot;white-space: pre;&quot;&gt;&#9;&lt;/span&gt;&amp;nbsp; &lt;b&gt;1&lt;/b&gt; 2 3 4 5 6 7 8 9 10&amp;nbsp;&lt;span style=&quot;white-space: pre;&quot;&gt;&#9;&lt;/span&gt;&lt;span style=&quot;white-space: pre;&quot;&gt;&#9;&lt;/span&gt;Siguiente&lt;/font&gt;" style="text;strokeColor=none;align=left;fillColor=none;html=1;verticalAlign=middle;whiteSpace=wrap;rounded=0;" vertex="1" parent="1">
                    <mxGeometry x="1080" y="1950" width="670" height="30" as="geometry"/>
                </mxCell>
                <mxCell id="l96GCFTQp6p8LahC0uS8-122" value="Filtros" style="text;strokeColor=none;align=center;fillColor=none;html=1;verticalAlign=middle;whiteSpace=wrap;rounded=0;fontSize=18;" vertex="1" parent="1">
                    <mxGeometry x="1640" y="1048" width="60" height="30" as="geometry"/>
                </mxCell>
                <mxCell id="l96GCFTQp6p8LahC0uS8-124" value="" style="shape=image;imageAspect=0;aspect=fixed;verticalLabelPosition=bottom;verticalAlign=top;fontSize=18;fillColor=#FFFFFF;image=data:image/png,iVBORw0KGgoAAAANSUhEUgAAAgAAAAIACAMAAADDpiTIAAAAAXNSR0IArs4c6QAAAARnQU1BAACxjwv8YQUAAAJbUExURQAAAMbGxs7Ozs3NzczMzM3NzczMzM7Ozs3Nzc3Nzaqqqs3NzczMzM7Ozs3Nzc3Nzc3NzczMzM/Pz83Nzc3Nzc7Ozs3NzczMzMzMzM3Nzc3Nzc7Ozs7OzsTExMzMzM3Nzc3Nzc3NzdLS0s3Nzc3Nzc3Nzc7OztXV1c3Nzc3Nzc7Ozr+/v87Ozs3Nzc3Nzc3NzczMzM3Nzc3NzcnJyczMzMzMzM/Pz////83Nzc3Nzf///83NzczMzMbGxs3Nzc3Nzc7Ozs/Pz8zMzMzMzNHR0c3NzdDQ0MjIyM3Nzc3NzczMzMjIyMzMzM3Nzc3Nzc3Nzc3Nzc3NzczMzM3Nzc3Nzc3Nzc3Nzc3Nzc7OztHR0c3NzczMzMzMzM/Pz83Nzc7OzszMzM3NzcrKys3Nzc7OzszMzM7Ozr+/v83Nzc3Nzc7Ozs7Ozs3NzczMzM/Pz8vLy8zMzM3Nzc3Nzc7OztDQ0M3Nzc3Nzc7OzszMzMzMzM/Pz87Ozs3NzczMzM3NzcvLy83NzcvLy83Nzc3Nzc3Nzc7OzsrKys3Nzc7Ozs3Nzc3Nzc3Nzdvb283NzczMzM7OztXV1c3Nzc3NzczMzM7Ozs3NzczMzM3Nzc3Nzc7OzsvLy87Ozs3NzcvLy83NzczMzM3Nzc3Nzc7Ozs3NzdHR0czMzM3Nzc3Nzc7Ozs3Nzc3Nzc3Nzc7Ozs3Nzc3NzczMzM3Nzc3Nzc3Nzc7OzsvLy83Nzc3Nzc3Nzc3Nzc3NzczMzM7Ozs3NzcvLy8vLy83Nzc3NzczMzM3Nzc3NzczMzM3Nzc3Nzc3NzczMzKuil6YAAADJdFJOUwAJKkdke4iRmSkDOHSl1/3/cxBhqe1gBVCs96pODW/i54ARifLxhwZm6ncIRN3cQg/+ohM84zoB+vsCrqsSw8cVINkeHNsbF9baGQ7U0bO2jopVUu69wWxoFp+cMjCyNLCtHfwfg4EE5eZZm8qmNTZu9JpYJp31YgreJYz2edMs4DHO1S4aGNAv+cx6B/NplgyvV2o+6xTp+Mk7bZgixS0zxobIC5dW5IKx7LtUUdLP2MKoOUDwhN9Mp0tecCdFkI94PWt94WdlN3yTghQAAAAJcEhZcwAADsMAAA7DAcdvqGQAABDNSURBVHhe7d39X1Rl/sfxIRUnSUGCSMxBMQXBFFAUBwsz8A6tNDJJzUKT8m7D+0Vpdb3Z+C4iq2v43a99W2+6v8/MzKzcarc/a/Wx7+2BMMOcmbnO8VyH1/NH5nM+15nrM8w555rrXCcEAAAAAAAAAAAAAAAAAAAAAAAAAAAAAAAAAAAAAAAAAAAAAAAQVBn3DBs+InNkODwyc8TwYfdm6M8YAkZl3Td6THbOHbLHjB6bNUoBCLDc+/PyVfQB8vMeyFUYAqngwXGFKnYcheMfKlAwgmZCpEhlHtTEScXaAEFSPPlhVTihKVM5EgRNSek0VdeR/LJybYhAmP6IKuvYjJnaFParCFeqrEmorJqlzWG52dWqaZKq5ygBbDY3UqOCJm3epKiSwFoZtapmSuZzLmi5Rx9TKVNUt0CJYKXHF6qQKRvzhFLBQvVJX/0N1LBIyWCdxUtUxLQsXaZ0sEzjcpUwTSsmKCGsEn1SBUzbU0wUsNHTKp8BK5USFlml4hnxjJLCGvVx5/2koomLQctEn1XpDFnNaYBdnlPhjFmjxLBCc5PqZkwTY8I2eV5lM2itUsMC61KYAJJI9nolh/+9oKIZVavk8D03vgBycio3KD387kWVzLCXlB4+17JRFTNs4yY1AH97WQUzbrMagK+1vqJ6Gfeqv28bbNyyddu0lGfADj1Ttg/fsaAgo/53r+W16U8G1EzbtnPX3ZhAsHvPXu0CnFi4b7967pbG0t/rz2bsXduuzF7JODBPbcOJg2Nb1XNS3pHgvvEk1az0dEJ5++tqF44s/YM6ro8Nh/SiIXUeTiU8nNSdr/hjzB92mo/oZUOqjyqx69qpf1KWxvlh79gMBRhSfVyJXVb+JzUIRwrfUMcNsK5TIYb8jzdrjx1Qc3BmrPothj8rxBRPRo52c/6flIX9zv/76krxRvJ4TnhxENijxuDMPvVbTN0KMuWk8rqokfGfpEzpM/4zUM9BhRnS5v6Y4BY1BWe2q9/i+IvCTDmlvO7ZqpbgzHD1WxynFWZKWHnds00twZkd6rc4/qowU+qU1z1n1BKceVP9FsdihZnSq7zuMTx2EXgl6rc4GhVmylnldQ8fgOQkGJzLUJgp7n8AOAQkp179Fke9wkxx/xDwv2oJzvxO/RbH3xRmivsngTvVEpz5P/VbHKYvA88pr3t2qSU4k6d+i8P0LQWrlNc9ExgKTkpbozoupgknFGZIW48Su2it2oIzpeq3mF5TkCk7lddN7cwET8rvB5mt2WV2cnBO51tK7KqVag3OdKjfYpikEFOmKq+7yuvUHBwpjHuX7/qzCjHk/7uU2GXLDM9jCbpDzeq4fo4Z7scijyaFhkJH+QQk5cgxddwdjq3Qy4YUva3EHjjOUSApM/6ujutjveH/ovOe/f/f1rXZ4P2NQ0Dnn/sdnrsmmT3+d17w6Pj/m+Mn+Qgko7q7zxjNhNfMXv+1hT25/uun59S5i738OuxY4V9O/3Vx8aX6v51+0eD4X2fvxXfe9WD8D3G1vqdaGOfzBSIg76texrFEjB1YJGqoS+tRgfGNU3r43WF3FoqMe1cx/OYD1cwo1om0hxtfAdl8AVjEhVumvZjbAVNmfaiyGZPPAyOsYnp27+AzyeA7ph8a9VFUiWGJRUYPAk0tSgtrfKzaGfGJksIiBldPm6yUsEnU2JODeHi0nRo/VQHT9Bk/71uqeYlKmJaFnk7ug0mLDKz+2xBzCjHssOlzlTFlS7gAtFrxFypkis4nWFQKfpcxX6VMyZeePvcDbpgbSXmm9LyyuUoCm81J8Z6fostKAMtVjMxWTZNQWTVLm8N+MxtUVseWfqVNEQgFpb2qrCP5ZV7f2ge35V64ouomdOXrCm2EIOmJOHo04NWyXG2AoGn9Ji/BI0EOXvuWn/4CreL6tbjLK5/Zfn3QVQQRDNEd31Ud6Xf/4MblVZENzPsbQspvfL+vI/OHcPjHzJv7pt9gyBcAAAAAAAAAAAAAAAAAAAAAAAAAAAAAAAAAAAAAAAAAAAAAAAAAAAAAAAAAAAAAAJiXcc+w4SMyR4bDIzNHDB92b4b+jCFgVNZ9o8dk59whe8zosVmjFIAAy70/L19FHyA/74FchSGQCh4cV6hix1E4/qECBSNoJkSKVOZBTZxUrA0QJMWTH1aFE5oylSNB0JSUTlN1HckvK9eGCITpj6iyjs2YqU1hv4pwpcqahMqqWdoclptdrZomqXqOEsBmcyM1KmjS5k2KKgmslVGraqZkPueClnv0MZUyRXULlAhWenyhCpmyMU8oFSxUn/TV30ANi5QM1lm8REVMy9JlSgfLNC5XCdO0YoISwirRJ1XAtD3FRAEbPa3yGbBSKWGRVSqeEc8oKaxRH3feTyqauBi0TPRZlc6Q1ZwG2OU5Fc6YNUoMKzQ3qW7GNDEmbJPnVTaD1io1LLAuhQkgiWSvV3L43wsqmlG1Sg7fc+MLICencoPSw+9eVMkMe0np4XMtG1UxwzZuUgPwt5dVMOM2qwH4Wusrqpdxr3Lb4N3UuGXrtmkpz/AdaErtmjnHosXN/1hTe1B/QkI107bt3HU3Jkjs3rNXu2BGw0+XlPmWnm5Ht41C9q5tV895JePAPLVtRuHPJcosXR2deglO1Kz0dMJ8++tq15Bf3lbiPtbN0ItwpM7DqZKHk7qzN7EVx5T4DsuO6GU4Un1UHee6dsP1/yVm/UOh5kMKgCPVx9VxLssw/P1fGOP7/z82JFg/Bneq61LHueuAmjPlZ+WNoUMhcMaTkbHdZs//cxr6nf/3VX5VQXDkhBcHgT1qzJSflDembgXBmZPqNxc1mh3/yZnSZ/xnoArDrQVdW486zj1b1JQpCaZ1zFcYnDmlfnPPVrVkSoLZvRGFwZmw+s0929SSKQnW/clSGJy5qH5zzxm1ZEqcQaD/alEYnOlVv7nH9G80CcYu9isMzpxVv7nH9Adg0IuAUKhLYXDG/Q+A6UNAs/LG0awwOOP+IcD0SeBs5Y2Dk8Dk1Knf3LNTLZmS4DLwnwqDM+fUb+7ZpZZMSTAQNF5hcGaV+s09PW1qypDCRiWO6dIJhcERD4aCQ2vVlindyhvTvxQEZ3aq39zUbnAm+G1Fg4wElBhYWHIo6XxLHeeqlWrNlA7ljeGmQuDMVPWbu8rr1JwhNTuUeIDLZxUCR857MyUstCzFBz7EMyPO7wEtExUAR4o8mhQaCh01/Ak4EnM4sOVTvQxHiuJOrjVvwWo1akj1r0rcx2X+/5Ny3rP//9u6NpsdDijs6HdnU0kHx/9kdF7w6Pj/m+MnzX4EDnVXKPMtl0q5/ktGW9iT679+ek6du9hr8NfhvfMjWS37S5p/XZPH+J9jnb0X33nXg/G/NLS+p301jgUi7PC+6mUcS8TYgUWihrq0HhUY3zilh98ddmehyDeUHr73gWpmFOtE2sONr4BsvgAsYvqW4lu8mPsAU2Z9qLIZk88DI6xyWnUzplSJYQfTD436KKrEsMQioweBphalhTU+Vu2M+ERJYRGDq4tNVkrYJGrsyUE8PNpOjYYm+X3m75+/EVfzEpUwLQs9nfwGkxYZWAG8IcGiMvCzTZ+rjClbwgWg1Yq/UCFTdP5NJYKlMtJa+vFLT5+LATfMjaQ8k3he2Vwlgc3mpHhnWdFlJYDlKkZmq6ZJqKyapc1hv5kNKqtjS7/SpgiEgtJeVdaR/DKvb32D23IvXFF1E7rydZ/7BhEYPRFHjwW7WparDRA0rd/kJXhM8MFr3/LTX6BVXL8Wd/nhM9uvD7qKIIIhuuO7qiP97h/cuLwqsoF5f0NI+Y3v93Vk/hAO/5h5c9/0Gwz5AgAAAAAAAAAAAAAAAAAAAAAAAAAAAAAAAAAAAAAAAAAAAAAAAAAAAAAAAAAAAAAA2C7jnmHDR2SODIdHZo4YPuzeDP0ZQ8CorPtGj8nOuUP2mNFjs0YpAAGWe39evoo+QH7eA7kKQyAVPDiuUMWOo3D8QwUKRtBMiBSpzIOaOKlYGyBIiic/rAonNGUqR4KgKSmdpuo6kl9Wrg0RCNMfUWUdmzFTm8J+FeFKlTUJlVWztDksN7taNU1S9RwlgM3mRmpU0KTNmxRVElgro1bVTMl8zgUt9+hjKmWK6hYoEaz0+EIVMmVjnlAqWKg+6au/gRoWKRmss3iJipiWpcuUDpZpXK4SpmnFBCWEVaJPqoBpe4qJAjZ6WuUzYKVSwiKrVDwjnlFSWKM+7ryfVDRxMWiZ6LMqnSGrOQ2wy3MqnDFrlBhWaG5S3YxpYkzYJs+rbAatVWpYYF0KE0ASyV6v5PC/F1Q0o2qVHL7nxhdATk7lBqWH372okhn2ktLD51o2qmKGbdykBuBvL6tgxm1WA/C11ldUL+NeHVq3DTZu2bptWsozav1vSu2aOceixc3/WFN7UH/yoZpp23buuhsTEnbv2atdCKaGny7pnd7S0+3ottG7Zu/adu2pVzIOzFPbwVT4c4neqXR1dOolf6pZ6ekE9fbX1W5A/fK23mgf62boRZ+q83Bq4uGk7qS1z4pjeqN3WHZEL/tU9VHtqOvaA17/X2LWPxRqPqQAn6o+rh11WUbAv/8LY3z//8eGBOvH3G11XdpRdx1Qc0H1s95nDB0K8StPRqJ2B/v8P6eh3/l/X+VXFeRTJ7w4COxRY0H1k95nTN0K8quT2k8XNQZ7/CdnSp/xn4EqfP7u23q0o+7ZoqaCKsG0jvkK86tT2k/3bFVLQZVgdm9EYX4V1n66Z5taCqoE6/5kKcyvLmo/3XNGLQVVnEGg/2pRmF/1aj/d4+/fRNKXYCxlv8L86qz20z1B/wAMehEQCnUpzK/c/wAE/RDQrPcZR7PC/Mr9Q0DQTwJn633G4feTwDrtp3t2qqWgSnAZ+E+F+dU57ad7dqmloEowEDReYX61Svvpnp42NRVQhY16ozFdOqEwn/JgKDi0Vm0FVbfeZ0z/UpBf7dR+uqk9wDPBbysaZCSgxMDCkm7qfEs76qqVai2oOvQ+Y7ipEL+aqv10V3mdmguomh16owNcPqsQnzrvzZSw0LIUH7Bgixlxfg9omagAnyryaFJoKHQ04J+AIzGHA1s+1cs+VRR3Mqt5C1ar0YCq/lVvtI/LPv//P+/Z//9tXZuDPRxQ2NHvTquSDn8f/zsveHT8/83xk8H+CBzqrtA7veVSqb+v/9rCnlz/9dNz6tzF3gD/Orx3fiSrZX9J869r8nw8/tfZe/Gddz0Y/wuQ1vfUd8YNsQUirPW+6mUcS8TYgUWihrq0HhUY3zilh98ddmehyDeUHr73gWpmFOtE2sONr4BsvgAs4sItzl7MxYApsz5U2YzJ54ERVjmtuhlTqsSwg+mHRn0UVWJYYpHRg0BTi9LCGh+rdkZ8oqSwiMHVziYrJWwSNfbkIB4ebadGQ5P8PuPneEs1L1EJ07LQ08l4MGmRgRXAGxIsKgM/2/S5ypiyJVwAWq34CxUyReffVCJYKiOtpR+/9PQ5HXDD3EjKM5vnlc1VEthsTop3uhVdVgJYrmJktmqahMqqWdoc9pvZoLI6tvQrbYpAKCjtVWUdyS/z+lY8uC33whVVN6ErX/e5bxCB0RNx9Fiwq2W52gBB0/pNXoLHBB+89i0//QVaxfVrcZdDPrP9+qCrCCIYoju+qzrS7/7BjcurIhuY9zeElN/4fl9H5g/h8I+ZN/dNv8GQLwAAAAAAAAAAAAAAAAAAAAAAAAAAAAAAAAAAAAAAAAAAAAAAMCQU+jegmgEpmiq4ewAAAABJRU5ErkJggg==;" vertex="1" parent="1">
                    <mxGeometry x="1710" y="1050.5" width="25" height="25" as="geometry"/>
                </mxCell>
                <mxCell id="l96GCFTQp6p8LahC0uS8-126" value="&lt;font color=&quot;#ffffff&quot;&gt;&lt;span style=&quot;font-size: 18px;&quot;&gt;Aquí incluiria la información del objeto perdido, como imagen, fecha, descripción&lt;/span&gt;&lt;/font&gt;&amp;nbsp;&amp;nbsp;" style="shape=note;whiteSpace=wrap;html=1;backgroundOutline=1;darkOpacity=0.05;" vertex="1" parent="1">
                    <mxGeometry x="1005" y="1290" width="190" height="170" as="geometry"/>
                </mxCell>
            </root>
        </mxGraphModel>
    </diagram>
    <diagram id="W4vCUtd58HTyqiW1j5Fm" name="Page-2">
        <mxGraphModel dx="3160" dy="1433" grid="1" gridSize="10" guides="1" tooltips="1" connect="1" arrows="1" fold="1" page="1" pageScale="1" pageWidth="10000" pageHeight="10000" math="0" shadow="0">
            <root>
                <mxCell id="0"/>
                <mxCell id="1" parent="0"/>
            </root>
        </mxGraphModel>
    </diagram>
    <diagram id="8JPkfL7RUQQK6uSzq1zr" name="Page-3">
        <mxGraphModel dx="1264" dy="573" grid="1" gridSize="10" guides="1" tooltips="1" connect="1" arrows="1" fold="1" page="1" pageScale="1" pageWidth="10000" pageHeight="10000" math="0" shadow="0">
            <root>
                <mxCell id="0"/>
                <mxCell id="1" parent="0"/>
            </root>
        </mxGraphModel>
    </diagram>
</mxfile>